<svg width="45" height="45" viewBox="0 0 45 45" fill="none" xmlns="http://www.w3.org/2000/svg">
<circle cx="22.5" cy="22.5" r="22" fill="#FF4380" stroke="black"/>
<path d="M39.9399 26.1522C39.7045 28.405 38.7837 30.5504 37.2838 32.3408C35.784 34.1312 33.7662 35.4935 31.4634 36.2705C29.1606 37.0476 26.6667 37.2077 24.2695 36.7323C21.8724 36.257 19.6697 35.1655 17.9158 33.584L19.0162 32.5443C20.5576 33.9342 22.4935 34.8935 24.6003 35.3112C26.7071 35.729 28.8989 35.5883 30.9228 34.9054C32.9466 34.2225 34.72 33.0251 36.0382 31.4516C37.3564 29.8781 38.1657 27.9926 38.3726 26.0127L39.9399 26.1522Z" fill="black"/>
<ellipse cx="22.5" cy="17.5" rx="1.5" ry="2.5" fill="black"/>
<ellipse cx="34.5" cy="16.5" rx="1.5" ry="2.5" fill="black"/>
</svg>
