<svg width="45" height="45" viewBox="0 0 45 45" fill="none" xmlns="http://www.w3.org/2000/svg">
<circle cx="22.5" cy="22.5" r="22" fill="#FF4380" stroke="black" stroke-width="2"/>
<path d="M30.1187 30.2179C28.7503 32.3029 26.7264 33.9537 24.3164 34.9507C21.9065 35.9476 19.2247 36.2434 16.6281 35.7986C14.0315 35.3538 11.6433 34.1896 9.78127 32.4609C7.91923 30.7322 6.67173 28.521 6.2048 26.1217L7.80761 25.8559C8.21604 27.9547 9.30728 29.8889 10.9361 31.401C12.5648 32.9132 14.6539 33.9316 16.9252 34.3206C19.1966 34.7097 21.5424 34.451 23.6505 33.5789C25.7585 32.7069 27.5289 31.2628 28.7259 29.439L30.1187 30.2179Z" fill="black"/>
<ellipse cx="11.5" cy="16.5" rx="1.5" ry="2.5" fill="black"/>
<ellipse cx="22.5" cy="17.5" rx="1.5" ry="2.5" fill="black"/>
</svg>
